<?xml version="1.0" standalone="no"?><!DOCTYPE svg PUBLIC "-//W3C//DTD SVG 1.1//EN" "http://www.w3.org/Graphics/SVG/1.1/DTD/svg11.dtd"><svg t="1603790886930" class="icon" viewBox="0 0 1024 1024" version="1.1" xmlns="http://www.w3.org/2000/svg" p-id="617" xmlns:xlink="http://www.w3.org/1999/xlink" width="200" height="200"><defs><style type="text/css"></style></defs><path d="M766.055696 31.594937c-0.486076 0.486076-0.486076 6.156962 0 12.637974 0.648101 11.017722 0 13.610127-10.693671 46.501266-9.397468 28.35443-19.443038 64.486076-26.896202 95.918988-1.134177 5.022785 1.458228 3.726582-43.908861 22.359493-29.812658 12.151899-40.668354 16.688608-52.658228 22.197469-5.022785 2.43038-32.081013 19.767089-39.210126 25.437974-2.75443 1.944304-4.050633 5.832911-2.10633 5.832912 0.486076 0 4.536709-1.782278 9.073418-4.050633 11.827848-5.994937 33.21519-14.582278 57.843038-23.007595 11.989873-4.050633 31.108861-11.179747 42.612658-15.878481 18.956962-7.939241 20.901266-8.425316 20.901266-5.508861 0 2.592405-8.425316 36.941772-17.98481 73.073418-1.134177 4.212658-2.75443 6.318987-5.994937 7.453164-2.43038 0.810127-5.508861 2.106329-6.967088 2.754431-2.106329 0.810127-3.726582-0.972152-6.805064-7.777215-4.536709-10.207595-8.911392-13.286076-16.364556-11.827849-10.207595 2.106329-22.84557 12.475949-67.402532 55.250633-9.883544 9.559494-22.521519 19.767089-29.974684 24.303798-14.744304 9.073418-34.511392 23.331646-37.913924 27.220253-2.75443 3.402532-2.916456 10.04557-0.162025 13.286076 3.888608 4.698734 10.36962 2.75443 21.549367-6.156962 19.605063-15.55443 60.435443-38.237975 104.992405-58.167089 26.734177-12.151899 28.35443-12.475949 30.78481-7.291139 4.050633 8.749367 11.665823 6.156962 17.498734-5.832911 2.268354-4.698734 5.18481-7.777215 7.939241-8.911393 37.751899-13.772152 78.906329-22.035443 125.083544-24.627848 15.55443-0.972152 32.891139-2.268354 38.562026-2.916456 5.508861-0.810127 10.04557-0.972152 10.045569-0.486076s-4.212658 5.022785-9.235443 10.207595c-7.291139 7.453165-8.911392 9.721519-7.291139 11.341773s4.536709-0.648101 14.096202-10.04557c13.286076-13.124051 14.906329-16.040506 12.151899-21.063291-3.888608-7.453165-11.341772-8.749367-46.987342-8.749367-44.070886 0.162025-81.336709 5.670886-121.032911 18.146835-5.994937 1.944304-10.207595 2.592405-10.207595 1.620253 0-0.972152 2.916456-11.989873 6.481013-24.627848 3.564557-12.475949 8.425316-30.78481 11.017721-40.668354l4.698734-17.822785 54.926583-23.493671c30.136709-13.124051 57.194937-24.951899 60.111392-26.410126 5.022785-2.75443 11.827848-10.531646 11.827848-13.934178 0-3.726582-10.531646-1.458228-28.840506 6.318988-38.724051 16.688608-91.868354 38.4-92.354431 38.075949-0.324051-0.324051 2.75443-13.610127 6.643038-29.488608 15.878481-62.703797 16.364557-65.458228 16.526583-93.164557 0-23.16962-1.296203-31.108861-4.374684-28.030379z m-89.275949 258.592405c4.212658 8.911392 4.050633 9.235443-14.906329 17.498734-9.721519 4.212658-23.331646 10.531646-29.974684 13.934177-14.258228 7.129114-13.286076 5.670886 8.101266-13.448101 14.906329-13.286076 29.974684-23.493671 33.21519-22.521519 0.972152 0.324051 2.43038 2.268354 3.564557 4.536709zM491.260759 63.513924c-3.726582 4.698734-6.967089 23.493671-10.855696 63.675949-2.75443 27.868354-6.805063 58.653165-8.101266 60.759494-0.486076 0.810127-10.531646 4.374684-22.359493 8.101266-11.665823 3.726582-24.303797 7.777215-27.868355 8.911392-3.564557 1.296203-18.470886 5.994937-33.21519 10.531646s-33.21519 10.36962-41.316455 12.962025c-32.891139 10.36962-87.007595 26.572152-130.43038 38.724051-62.703797 17.822785-70.481013 20.253165-82.470886 27.382278-16.202532 9.397468-15.392405 10.693671 5.994937 9.397469 23.16962-1.296203 64.162025-9.559494 104.020253-21.063291 32.405063-9.073418 143.716456-42.774684 191.189873-57.681013 14.744304-4.698734 28.03038-8.749367 29.812658-9.235443 2.268354-0.810127 2.75443-0.324051 2.10633 2.106329-1.944304 6.156962-7.61519 54.116456-10.207595 85.711392-1.458228 18.956962-2.268354 41.316456-1.944304 53.792405l0.648101 21.225317-6.481013 2.592405c-3.564557 1.458228-6.481013 2.43038-6.643037 2.106329-0.162025-0.162025-10.531646-14.582278-22.84557-31.918987-41.478481-58.329114-54.926582-72.911392-67.240506-72.911393-3.402532 0-7.291139 0.486076-8.749368 0.972152-3.726582 1.458228-8.101266 10.693671-17.174683 37.589874-4.536709 13.124051-14.744304 37.265823-22.521519 53.792405-7.939241 16.526582-15.878481 34.025316-17.66076 38.886076-7.939241 20.901266-1.134177 35.807595 18.470887 40.668354 17.336709 4.374684 37.751899-2.106329 93.812658-29.812658l41.964557-20.901266 7.93924 8.911392c9.073418 10.36962 15.878481 13.772152 19.605064 9.559494 1.296203-1.458228 3.078481-8.911392 4.212658-16.364557 0.972152-7.453165 1.944304-13.934177 2.268354-14.258228 1.620253-1.458228 17.98481-3.564557 22.197469-2.592405 4.212658 0.810127 4.860759 0.324051 4.860759-2.43038 0-5.346835-6.156962-8.425316-16.688608-8.425316h-9.397468l0.972152-19.929114c1.134177-22.359494 7.129114-94.622785 8.101266-98.349367 0.324051-1.296203 1.782278-11.989873 3.240506-23.493671 1.458228-11.665823 2.916456-22.197468 3.402532-23.493671 0.324051-1.458228 5.832911-4.050633 13.12405-6.318987 31.594937-9.883544 121.518987-44.070886 135.29114-51.524051 9.721519-5.18481 19.118987-15.392405 19.118987-20.41519 0-5.18481-4.374684-10.855696-10.531646-13.448101-2.75443-1.134177-12.637975-3.564557-21.873417-5.508861-22.035443-4.536709-51.037975-15.23038-82.308861-30.298734-37.265823-17.822785-42.126582-19.929114-47.149367-19.929114-2.592405 0-5.346835 0.972152-6.318988 1.944304z m45.529114 23.007595c30.946835 16.202532 53.306329 25.762025 79.392405 34.349367 10.36962 3.402532 18.956962 6.643038 18.956963 7.129114 0 1.296203-26.410127 12.151899-53.954431 22.197468-20.739241 7.453165-83.767089 29.650633-84.577215 29.650633-0.162025 0 0.324051-4.860759 1.134177-11.017721 1.782278-14.420253 2.268354-81.498734 0.648101-92.192405l-1.296202-8.587342 6.805063 2.43038c3.726582 1.296203 18.470886 8.587342 32.891139 16.040506zM364.232911 296.992405c12.313924 11.989873 67.564557 88.303797 65.458228 90.572152-2.592405 2.43038-67.078481 32.243038-82.146835 37.751899-18.794937 6.967089-36.779747 9.235443-42.126582 5.18481-2.75443-2.106329-3.078481-4.050633-2.754431-12.8 0.810127-15.716456 4.212658-28.03038 14.906329-53.792405 5.346835-13.124051 13.448101-34.025316 17.98481-46.825317 10.207595-28.840506 11.341772-30.78481 17.336709-28.516455 2.43038 0.972152 7.453165 4.698734 11.341772 8.425316z m94.298735 100.941772c0 2.268354-0.486076 2.268354-2.43038 0.648101-1.296203-1.134177-2.43038-2.268354-2.43038-2.592405 0-0.324051 1.134177-0.648101 2.43038-0.648101s2.43038 1.134177 2.43038 2.592405zM635.625316 386.916456c-2.916456 1.458228-11.503797 9.559494-19.281012 17.822785-7.777215 8.263291-31.918987 31.594937-53.954431 51.848101-21.873418 20.091139-54.440506 50.227848-72.263291 66.75443-78.744304 73.073418-123.625316 111.311392-172.556962 146.632912-14.744304 10.531646-37.265823 26.896203-50.227848 36.29367-29.650633 21.549367-62.541772 49.255696-65.782278 55.574684-3.240506 6.318987-2.43038 10.855696 2.75443 14.582278 6.967089 5.346835 8.749367 4.212658 86.521519-52.334177 39.858228-28.840506 49.579747-35.159494 101.265823-64.648101 57.356962-32.729114 95.594937-52.982278 136.101266-72.101266 104.020253-49.093671 183.898734-73.235443 254.379746-76.962025 41.316456-2.268354 53.792405-0.162025 56.06076 9.073418 2.75443 11.017722-7.291139 27.058228-35.96962 57.356962-41.316456 43.58481-122.653165 126.379747-124.435443 126.379746-0.972152 0-9.721519-3.240506-19.605064-7.291139-31.270886-12.637975-81.174684-24.627848-131.888607-31.594937-44.070886-6.156962-106.126582-3.726582-132.050633 5.022785-19.118987 6.481013-27.868354 12.8-39.534177 28.678481-13.772152 18.632911-47.635443 89.762025-61.083545 128.648102-12.151899 34.997468-16.202532 58.653165-15.068354 90.410126 1.782278 48.44557 14.258228 62.217722 53.95443 59.139241 50.227848-3.726582 107.908861-32.081013 187.949367-92.192405 57.356962-43.260759 100.779747-80.364557 139.989874-119.736709 27.868354-28.03038 28.192405-28.35443 34.187342-27.544304 4.860759 0.648101 6.805063 0.162025 9.721519-2.75443 3.078481-3.078481 3.402532-4.860759 2.75443-10.531646l-0.972152-6.805063 51.362025-52.982279c91.382278-94.136709 94.460759-98.025316 100.941773-122.977215 3.726582-14.582278 3.726582-18.794937 0.32405-30.136709-3.726582-11.503797-14.258228-22.683544-25.6-26.896202-12.151899-4.374684-56.546835-5.18481-85.063291-1.620254-65.620253 8.263291-147.605063 35.807595-237.853165 79.716456-39.696203 19.443038-37.589873 18.470886-36.617721 16.040506 0.486076-1.296203 5.670886-6.481013 11.665823-11.665822 5.994937-5.346835 23.16962-21.225316 38.4-35.321519 104.83038-98.349367 119.088608-114.389873 121.681012-136.749367 0.972152-9.235443 0.810127-10.04557-1.944303-10.04557-1.782278 0.162025-5.346835 1.458228-8.263292 2.916456zM468.253165 680.506329c14.744304 0.972152 32.567089 2.43038 39.696202 3.402532 19.929114 2.43038 62.379747 10.693671 87.007595 17.012658 20.091139 5.022785 53.95443 16.040506 60.435443 19.605063 2.106329 1.296203-0.648101 4.536709-14.906329 17.66076-61.24557 56.708861-156.516456 133.18481-209.336709 168.344304-38.562025 25.6-68.536709 40.344304-94.946835 46.825316-12.151899 2.916456-26.572152 3.888608-29.650633 1.944304-6.318987-3.888608-10.04557-39.858228-6.967089-66.916456 4.050633-34.673418 15.068354-66.268354 47.797468-136.263291 14.744304-31.594937 22.521519-45.367089 31.756963-55.898734 14.744304-16.688608 29.812658-19.281013 89.113924-15.716456z" p-id="618" fill="#ffffff"></path></svg>