<?xml version="1.0" standalone="no"?><!DOCTYPE svg PUBLIC "-//W3C//DTD SVG 1.1//EN" "http://www.w3.org/Graphics/SVG/1.1/DTD/svg11.dtd"><svg t="1563420252743" class="icon" viewBox="0 0 1024 1024" version="1.1" xmlns="http://www.w3.org/2000/svg" p-id="3048" xmlns:xlink="http://www.w3.org/1999/xlink" width="200" height="200"><defs><style type="text/css"></style></defs><path d="M674.305 494.595L437.76 272.898c-13.31-6.657-28.67-5.633-41.472 1.536-12.8 7.68-19.97 20.992-19.97 35.328v430.082c0 14.338 7.682 27.645 19.97 35.325 6.657 4.098 14.337 6.145 22.016 6.145 6.658 0 13.312-1.534 18.945-4.606l236.543-208.385c13.311-12.287 23.551-21.504 23.551-37.376 0-14.848-8.7-23.552-23.038-36.352z" fill="#13ce66" p-id="3049"></path><path d="M512 0C229.89 0 0 229.89 0 512.001 0 794.116 229.89 1024 512 1024c282.115 0 512-229.884 512-511.999C1024 229.889 794.115 0 512 0z m0 960.002c-247.295 0-448-201.214-448-448.001 0-247.295 201.218-448 448-448 247.295 0 448.001 201.217 448.001 448 0 247.295-200.706 448.001-448.001 448.001z" fill="#13ce66" p-id="3050"></path></svg>